<svg id="visual" viewBox="0 0 900 600" width="900" height="600" xmlns="http://www.w3.org/2000/svg" xmlns:xlink="http://www.w3.org/1999/xlink" version="1.1"><path d="M0 295L12.5 287.2C25 279.3 50 263.7 75 262.8C100 262 125 276 150 281.8C175 287.7 200 285.3 225 279.7C250 274 275 265 300 267.8C325 270.7 350 285.3 375 286.3C400 287.3 425 274.7 450 266C475 257.3 500 252.7 525 256.2C550 259.7 575 271.3 600 279C625 286.7 650 290.3 675 287.3C700 284.3 725 274.7 750 268.7C775 262.7 800 260.3 825 262.5C850 264.7 875 271.3 887.5 274.7L900 278L900 601L887.5 601C875 601 850 601 825 601C800 601 775 601 750 601C725 601 700 601 675 601C650 601 625 601 600 601C575 601 550 601 525 601C500 601 475 601 450 601C425 601 400 601 375 601C350 601 325 601 300 601C275 601 250 601 225 601C200 601 175 601 150 601C125 601 100 601 75 601C50 601 25 601 12.5 601L0 601Z" fill="#b75149"></path><path d="M0 338L12.5 334.3C25 330.7 50 323.3 75 324.3C100 325.3 125 334.7 150 334.8C175 335 200 326 225 323.7C250 321.3 275 325.7 300 330.7C325 335.7 350 341.3 375 343.2C400 345 425 343 450 342C475 341 500 341 525 340.8C550 340.7 575 340.3 600 343.8C625 347.3 650 354.7 675 356.7C700 358.7 725 355.3 750 355C775 354.7 800 357.3 825 358.7C850 360 875 360 887.5 360L900 360L900 601L887.5 601C875 601 850 601 825 601C800 601 775 601 750 601C725 601 700 601 675 601C650 601 625 601 600 601C575 601 550 601 525 601C500 601 475 601 450 601C425 601 400 601 375 601C350 601 325 601 300 601C275 601 250 601 225 601C200 601 175 601 150 601C125 601 100 601 75 601C50 601 25 601 12.5 601L0 601Z" fill="#bf584a"></path><path d="M0 422L12.5 418.7C25 415.3 50 408.7 75 405C100 401.3 125 400.7 150 403.5C175 406.3 200 412.7 225 413.3C250 414 275 409 300 408.8C325 408.7 350 413.3 375 410.3C400 407.3 425 396.7 450 397.5C475 398.3 500 410.7 525 413.3C550 416 575 409 600 404.5C625 400 650 398 675 399.3C700 400.7 725 405.3 750 409.8C775 414.3 800 418.7 825 421C850 423.3 875 423.7 887.5 423.8L900 424L900 601L887.5 601C875 601 850 601 825 601C800 601 775 601 750 601C725 601 700 601 675 601C650 601 625 601 600 601C575 601 550 601 525 601C500 601 475 601 450 601C425 601 400 601 375 601C350 601 325 601 300 601C275 601 250 601 225 601C200 601 175 601 150 601C125 601 100 601 75 601C50 601 25 601 12.5 601L0 601Z" fill="#c7604a"></path><path d="M0 478L12.5 477.7C25 477.3 50 476.7 75 473.3C100 470 125 464 150 462.3C175 460.7 200 463.3 225 466.7C250 470 275 474 300 470.3C325 466.7 350 455.3 375 454C400 452.7 425 461.3 450 462.2C475 463 500 456 525 458.7C550 461.3 575 473.7 600 477.7C625 481.7 650 477.3 675 471.3C700 465.3 725 457.7 750 454.8C775 452 800 454 825 453.3C850 452.7 875 449.3 887.5 447.7L900 446L900 601L887.5 601C875 601 850 601 825 601C800 601 775 601 750 601C725 601 700 601 675 601C650 601 625 601 600 601C575 601 550 601 525 601C500 601 475 601 450 601C425 601 400 601 375 601C350 601 325 601 300 601C275 601 250 601 225 601C200 601 175 601 150 601C125 601 100 601 75 601C50 601 25 601 12.5 601L0 601Z" fill="#ce684a"></path><path d="M0 514L12.5 517.2C25 520.3 50 526.7 75 532.5C100 538.3 125 543.7 150 544.5C175 545.3 200 541.7 225 536.8C250 532 275 526 300 525.3C325 524.7 350 529.3 375 530.8C400 532.3 425 530.7 450 526.5C475 522.3 500 515.7 525 514.2C550 512.7 575 516.3 600 523C625 529.7 650 539.3 675 543.5C700 547.7 725 546.3 750 545.8C775 545.3 800 545.7 825 546.3C850 547 875 548 887.5 548.5L900 549L900 601L887.5 601C875 601 850 601 825 601C800 601 775 601 750 601C725 601 700 601 675 601C650 601 625 601 600 601C575 601 550 601 525 601C500 601 475 601 450 601C425 601 400 601 375 601C350 601 325 601 300 601C275 601 250 601 225 601C200 601 175 601 150 601C125 601 100 601 75 601C50 601 25 601 12.5 601L0 601Z" fill="#d5704a"></path></svg>   